<svg width="150" height="149" viewBox="0 0 150 149" fill="none" xmlns="http://www.w3.org/2000/svg">
<rect x="21.5" y="21" width="107" height="107" rx="53.5" fill="#FD8719"/>
<rect x="11" y="10.5" width="128" height="128" rx="64" stroke="#FD8719" stroke-opacity="0.3" stroke-width="21"/>
<path d="M74.0794 83.7853C79.3522 78.1433 84.4429 74.316 90.8374 68.8963C92.7519 67.274 93.0477 64.4303 91.5462 62.416C89.9502 60.274 86.9174 59.8453 84.8664 61.548C79.0092 66.406 74.4522 71.0855 70.1297 76.0835C69.9022 76.346 69.7884 76.4773 69.6712 76.5508C69.5263 76.6433 69.3582 76.6929 69.1863 76.6938C69.0144 76.6948 68.8458 76.647 68.6999 76.556C68.5809 76.4843 68.4672 76.3548 68.2397 76.0975L65.9367 73.49C65.448 72.9348 64.8379 72.4997 64.1537 72.2187C63.4695 71.9376 62.7297 71.8182 61.9918 71.8697C61.254 71.9211 60.5379 72.1421 59.8994 72.5154C59.2608 72.8887 58.717 73.4043 58.3102 74.022C57.7132 74.9242 57.4328 75.9991 57.5129 77.078C57.5931 78.1568 58.0292 79.1785 58.7529 79.9825L62.3649 83.99C65.0652 86.986 66.4162 88.4858 68.0384 88.4998C69.6589 88.5138 71.1324 86.9388 74.0794 83.7853Z" fill="#FEDBBA" stroke="#FEDBBA" stroke-width="1.5" stroke-linecap="round" stroke-linejoin="round"/>
</svg>
