<svg width="29" height="29" viewBox="0 0 29 29" fill="none" xmlns="http://www.w3.org/2000/svg">
<path d="M4.98334 24.4168C5.95167 25.3852 7.515 25.3852 8.48334 24.4168L23.65 9.25018C24.6183 8.28184 24.6183 6.71851 23.65 5.75018C22.6817 4.78184 21.1183 4.78184 20.15 5.75018L4.98334 20.9168C4.015 21.8852 4.015 23.4485 4.98334 24.4168Z" stroke="#FD8719" stroke-width="1.5" stroke-linecap="round" stroke-linejoin="round"/>
<path d="M21.9117 10.9883L18.4117 7.48828" stroke="#FD8719" stroke-width="1.5" stroke-linecap="round" stroke-linejoin="round"/>
<path d="M10.8167 3.34683L12.5667 2.8335L12.0533 4.5835L12.5667 6.3335L10.8167 5.82016L9.06667 6.3335L9.58 4.5835L9.06667 2.8335L10.8167 3.34683Z" stroke="#FD8719" stroke-linecap="round" stroke-linejoin="round"/>
<path d="M6.15 10.3468L7.9 9.8335L7.38667 11.5835L7.9 13.3335L6.15 12.8202L4.4 13.3335L4.91333 11.5835L4.4 9.8335L6.15 10.3468Z" stroke="#FD8719" stroke-linecap="round" stroke-linejoin="round"/>
<path d="M23.65 16.1798L25.4 15.6665L24.8867 17.4165L25.4 19.1665L23.65 18.6532L21.9 19.1665L22.4133 17.4165L21.9 15.6665L23.65 16.1798Z" stroke="#FD8719" stroke-linecap="round" stroke-linejoin="round"/>
</svg>
