<svg width="29" height="28" viewBox="0 0 29 28" fill="none" xmlns="http://www.w3.org/2000/svg">
<path d="M14.7867 12.6818C14.67 12.6702 14.53 12.6702 14.4017 12.6818C11.625 12.5885 9.42004 10.3135 9.42004 7.5135C9.42004 4.65516 11.73 2.3335 14.6 2.3335C17.4584 2.3335 19.78 4.65516 19.78 7.5135C19.7684 10.3135 17.5634 12.5885 14.7867 12.6818Z" stroke="#C2C2C2" stroke-width="1.5" stroke-linecap="round" stroke-linejoin="round"/>
<path d="M8.95338 16.9865C6.13004 18.8765 6.13004 21.9565 8.95338 23.8348C12.1617 25.9815 17.4234 25.9815 20.6317 23.8348C23.455 21.9448 23.455 18.8648 20.6317 16.9865C17.435 14.8515 12.1734 14.8515 8.95338 16.9865Z" stroke="#C2C2C2" stroke-width="1.5" stroke-linecap="round" stroke-linejoin="round"/>
</svg>
