<svg width="17" height="20" viewBox="0 0 17 20" fill="none" xmlns="http://www.w3.org/2000/svg">
<path d="M16.1675 15.3086C15.8906 15.9541 15.5485 16.5696 15.1465 17.1456C14.6095 17.9126 14.1685 18.4426 13.8305 18.7376C13.3055 19.2196 12.7415 19.4676 12.1385 19.4816C11.7065 19.4816 11.1845 19.3586 10.5765 19.1086C9.9665 18.8596 9.4065 18.7376 8.8935 18.7376C8.3565 18.7376 7.7805 18.8596 7.1635 19.1086C6.5475 19.3586 6.0495 19.4896 5.6685 19.5016C5.0915 19.5266 4.5145 19.2726 3.9395 18.7376C3.5725 18.4176 3.1135 17.8676 2.5625 17.0896C1.9725 16.2606 1.4875 15.2956 1.1075 14.1986C0.700498 13.0116 0.496498 11.8636 0.496498 10.7516C0.496498 9.47858 0.771498 8.37958 1.3225 7.45958C1.73925 6.73705 2.33505 6.13402 3.0525 5.70858C3.75997 5.28425 4.56758 5.05577 5.3925 5.04658C5.8525 5.04658 6.4555 5.18858 7.2025 5.46858C7.9495 5.74858 8.4295 5.89058 8.6385 5.89058C8.7965 5.89058 9.3275 5.72358 10.2315 5.39258C11.0845 5.08558 11.8045 4.95858 12.3945 5.00858C13.9945 5.13758 15.1955 5.76758 15.9945 6.90358C14.5645 7.77058 13.8575 8.98358 13.8715 10.5406C13.8835 11.7536 14.3245 12.7626 15.1885 13.5636C15.5705 13.9291 16.0162 14.2216 16.5035 14.4266C16.3975 14.7336 16.2855 15.0266 16.1675 15.3086ZM12.5005 0.877582C12.5005 1.82758 12.1525 2.71558 11.4615 3.53658C10.6255 4.51258 9.6155 5.07758 8.5205 4.98858C8.50618 4.86912 8.49916 4.7489 8.4995 4.62858C8.4995 3.71558 8.8955 2.73958 9.6025 1.94058C9.9545 1.53658 10.4025 1.19958 10.9455 0.931582C11.4875 0.667582 11.9995 0.521582 12.4815 0.496582C12.4945 0.624582 12.5005 0.751582 12.5005 0.877582Z" fill="white"/>
</svg>
