<svg width="29" height="28" viewBox="0 0 29 28" fill="none" xmlns="http://www.w3.org/2000/svg">
<path fill-rule="evenodd" clip-rule="evenodd" d="M14.0019 23.7629C10.2231 23.7629 6.99491 23.1913 6.99491 20.9023C6.99491 18.6133 10.2021 16.6206 14.0019 16.6206C17.7807 16.6206 21.0089 18.5946 21.0089 20.8824C21.0089 23.1703 17.8017 23.7629 14.0019 23.7629Z" stroke="#C2C2C2" stroke-width="1.5" stroke-linecap="round" stroke-linejoin="round"/>
<path fill-rule="evenodd" clip-rule="evenodd" d="M14.0019 13.3567C16.4822 13.3567 18.4936 11.3465 18.4936 8.86618C18.4936 6.38584 16.4822 4.37451 14.0019 4.37451C11.5216 4.37451 9.51025 6.38584 9.51025 8.86618C9.50325 11.3372 11.4982 13.3485 13.9704 13.3567H14.0019Z" stroke="#C2C2C2" stroke-width="1.5" stroke-linecap="round" stroke-linejoin="round"/>
<path d="M21.4566 12.1235C22.8997 11.7374 23.9637 10.4214 23.9637 8.85454C23.9637 7.22004 22.8052 5.85504 21.2629 5.54004" stroke="#C2C2C2" stroke-width="1.5" stroke-linecap="round" stroke-linejoin="round"/>
<path d="M22.1344 15.8018C24.1807 15.8018 25.9284 17.1889 25.9284 18.4279C25.9284 19.1571 25.3252 19.9516 24.4106 20.1663" stroke="#C2C2C2" stroke-width="1.5" stroke-linecap="round" stroke-linejoin="round"/>
<path d="M6.54843 12.1235C5.1041 11.7374 4.0401 10.4214 4.0401 8.85454C4.0401 7.22004 5.19977 5.85504 6.74093 5.54004" stroke="#C2C2C2" stroke-width="1.5" stroke-linecap="round" stroke-linejoin="round"/>
<path d="M5.86943 15.8018C3.8231 15.8018 2.07543 17.1889 2.07543 18.4279C2.07543 19.1571 2.6786 19.9516 3.59443 20.1663" stroke="#C2C2C2" stroke-width="1.5" stroke-linecap="round" stroke-linejoin="round"/>
</svg>
